<svg width="400" height="300" viewBox="0 0 400 300" fill="none" xmlns="http://www.w3.org/2000/svg">
<path d="M138.909 216.012L88.0894 297.398L83.0001 294.22L133.819 212.834L138.909 216.012Z" fill="#02575C"/>
<path d="M157.161 268.276L102.114 270.103L102 266.66L157.047 264.834L157.161 268.276Z" fill="#02575C"/>
<path d="M141.8 204.834L166.391 297.578L160.592 299.116L136 206.372L141.8 204.834Z" fill="#02575C"/>
<path d="M136.885 203.863L136.495 299.811L130.495 299.787L130.885 203.838L136.885 203.863Z" fill="#02575C"/>
<path d="M257.667 149C257.667 140.716 241.251 134 221 134V164H257.667C267.792 164 276 160.642 276 156.5C276 152.358 267.792 149 257.667 149Z" fill="#D1E5F5"/>
<path d="M252.667 189C252.667 180.716 236.251 174 216 174V204H252.667C262.792 204 271 200.642 271 196.5C271 192.358 262.792 189 252.667 189Z" fill="#D1E5F5"/>
<path d="M96.5651 192.06C97.5422 193.25 99.1247 193.25 100.102 192.06L121.154 166.418C122.132 165.228 121.671 164.264 120.128 164.264H108.95C107.406 164.264 106.357 163.033 106.689 161.533C112.437 135.474 135.797 115.909 163.674 115.909C195.851 115.909 222.028 141.968 222.028 174C222.028 206.032 195.851 232.092 163.674 232.092C159.816 232.092 156.688 235.205 156.688 239.046C156.688 242.886 159.816 246 163.674 246C203.555 246 236 213.701 236 174C236 134.299 203.555 102 163.674 102C128.071 102 98.4131 127.747 92.4573 161.517C92.19 163.03 90.777 164.264 89.2337 164.264H76.5392C74.9956 164.264 74.5366 165.228 75.5125 166.418L96.5651 192.06Z" fill="#58BA89"/>
<path d="M121.968 165.834H250L195.129 245.834H61.0001L121.968 165.834Z" fill="#E2F297"/>
<path d="M178 165.834L137.5 245.834M157 165.834L116.5 245.834M134.5 165.834L94.0001 245.834" stroke="black"/>
<path d="M221.5 165.834L184.5 245.834" stroke="black"/>
<path d="M199 165.834L160.5 245.834" stroke="black"/>
<path d="M109.5 184.334H231" stroke="black"/>
<path d="M105.5 237L118.22 211.132L144.26 230.224C145.227 230.932 146.413 231.163 147.507 230.869C147.627 230.837 147.747 230.799 147.864 230.754C149.052 230.301 149.94 229.252 150.247 227.94L159.619 187.802L184.302 207.531C185.989 208.88 188.316 208.648 189.635 207L206.947 185.369C208.339 183.63 208.103 180.96 206.422 179.406C204.74 177.852 202.249 178.001 200.858 179.739L185.886 198.445L159.463 177.325C158.397 176.473 157.016 176.226 155.799 176.659C154.573 177.095 153.651 178.16 153.338 179.503L143.904 219.904L119.781 202.218C118.192 201.052 116.094 201.225 114.782 202.631L96.8261 221.857C95.3138 223.476 91.9262 234.821 93.5001 236.5C96.5001 236 104 237 105.5 237Z" fill="#02575C"/>
<path d="M75.0001 236.834H196.5" stroke="black"/>
<path d="M210.538 174.43L211.936 187.353L197.947 177.66L210.538 174.43Z" fill="#02575C"/>
<path d="M56.0001 244.834H199V250.834H56.0001V244.834Z" fill="#02575C"/>
<path d="M92.6667 131.5C92.6667 123.216 76.2505 116.5 56 116.5C35.7495 116.5 19.3333 123.216 19.3333 131.5C9.20832 131.5 1 134.858 1 139C1 143.142 9.20832 146.5 19.3333 146.5H92.6665C102.792 146.5 111 143.142 111 139C111 134.858 102.792 131.5 92.6667 131.5Z" fill="#E8F4FC"/>
<path d="M240.667 109C240.667 100.716 224.251 94 204 94C183.749 94 167.333 100.716 167.333 109C157.208 109 149 112.358 149 116.5C149 120.642 157.208 124 167.333 124H240.667C250.792 124 259 120.642 259 116.5C259 112.358 250.792 109 240.667 109Z" fill="#E8F4FC"/>
<ellipse cx="258.5" cy="71" rx="22.5" ry="23" fill="#D9D9D9"/>
<ellipse cx="161" cy="73.5" rx="11" ry="11.5" fill="#D9D9D9"/>
<ellipse cx="243" cy="257.5" rx="11" ry="11.5" fill="#D9D9D9"/>
<ellipse cx="55" cy="224.5" rx="11" ry="11.5" fill="#D9D9D9"/>
<ellipse cx="239" cy="148.5" rx="11" ry="11.5" fill="#D9D9D9"/>
<ellipse cx="178" cy="33.5" rx="11" ry="11.5" fill="#D9D9D9"/>
<ellipse cx="99" cy="11.5" rx="11" ry="11.5" fill="#D9D9D9"/>
<ellipse cx="55.5" cy="62.5" rx="55.5" ry="11.5" fill="#D9D9D9"/>
<ellipse cx="123" cy="113.5" rx="11" ry="11.5" fill="#D9D9D9"/>
<ellipse cx="292" cy="62.5" rx="11" ry="11.5" fill="#D9D9D9"/>
</svg>
